<svg xmlns="http://www.w3.org/2000/svg" width="1100" height="1200" viewBox="0 0 1100 1200"><g fill="#7C8D9B"><path d="M88.581 123.856H30.554V45.197h37.662l20.365 20.365v58.294zm-56.737-1.289h55.448V66.096l-19.61-19.609H31.844v76.08z"/><path d="M88.581 123.856H30.554V45.197h37.395v20.632h20.632v58.027zm-56.737-1.289h55.448V67.119H66.66V46.487H31.844v76.08z"/><path d="M45.119 114.798h-1.625v-1.986h1.625v1.986zM48.639 114.798h-1.264v-11.735h1.264v5.236h3.557v-5.236h1.264v11.735h-1.264v-5.416h-3.557v5.416zM60.68 103.063v1.084h-2.347v10.651H57.07v-10.651h-2.347v-1.084h5.957zM63.208 114.798h-1.264v-11.735h1.896l2.058 7.745 2.077-7.745h1.895v11.735h-1.264v-9.713l-2.112 7.908H65.32l-2.112-7.908v9.713zM72.396 114.798v-11.735h1.264v10.652h3.304v1.083h-4.568z"/></g><g fill="#7C8D9B"><path d="M617.033 501.772h-58.026v-78.658h37.662l20.364 20.364v58.294zm-56.736-1.289h55.447v-56.472l-19.609-19.608h-35.838v76.08z"/><path d="M617.033 501.772h-58.026v-78.658h37.396v20.631h20.631l-.001 58.027zm-56.736-1.289h55.447v-55.448h-20.631v-20.632h-34.816v76.08z"/><path d="M573.571 492.715h-1.625v-1.984h1.625v1.984zM577.092 492.715h-1.264V480.98h1.264v5.235h3.558v-5.235h1.264v11.734h-1.264v-5.416h-3.558v5.417zM589.133 480.979v1.084h-2.347v10.651h-1.264v-10.651h-2.348v-1.084h5.959zM591.66 492.715h-1.264V480.98h1.896l2.057 7.743 2.077-7.743h1.896v11.734h-1.265v-9.713l-2.111 7.908h-1.174l-2.112-7.908v9.714zM600.85 492.715V480.98h1.265v10.651h3.303v1.083h-4.568v.001z"/></g><g fill="#7C8D9B"><path d="M86.773 409.508H28.746V330.85h37.662l20.365 20.365v58.293zm-56.737-1.289h55.448v-56.471l-19.609-19.609H30.036v76.08z"/><path d="M86.773 409.508H28.746V330.85h37.395v20.632h20.632v58.026zm-56.737-1.289h55.448v-55.447H64.852v-20.633H30.036v76.08z"/><path d="M49.404 400.451h-1.625v-1.986h1.625v1.986zM52.924 400.451H51.66v-11.736h1.896l2.058 7.745 2.077-7.745h1.895v11.736h-1.264v-9.713l-2.112 7.909h-1.173l-2.113-7.909v9.713zM65.019 400.451h-2.906v-11.736h2.906c.938 0 1.652.225 2.14.669.488.444.731 1.065.731 1.86v6.679c0 .806-.241 1.43-.722 1.869-.482.438-1.199.659-2.149.659zm1.606-2.528v-6.679c0-.385-.142-.723-.425-1.012-.282-.288-.677-.433-1.182-.433h-1.643v9.567h1.643c.505 0 .9-.144 1.182-.424a1.38 1.38 0 0 0 .425-1.019z"/></g><g fill="#7C8D9B"><path d="M952.51 130.484h-58.026V51.826h37.661l20.365 20.365v58.293zm-56.739-1.289h55.448v-56.47l-19.608-19.609h-35.84v76.079z"/><path d="M952.51 130.484h-58.026V51.826h37.396v20.632h20.632l-.002 58.026zm-56.739-1.289h55.448V73.748h-20.633V53.115h-34.815v76.08z"/><path d="M915.141 121.428h-1.625v-1.986h1.625v1.986zM918.66 121.428h-1.264v-11.737h1.896l2.058 7.745 2.077-7.745h1.896v11.736h-1.264v-9.713l-2.111 7.908h-1.174l-2.113-7.908v9.714h-.001zM930.756 121.428h-2.906v-11.737h2.906c.938 0 1.652.225 2.139.669.488.444.731 1.065.731 1.86v6.679c0 .806-.241 1.43-.722 1.869-.481.439-1.198.66-2.148.66zm1.606-2.529v-6.679c0-.385-.143-.723-.425-1.012-.282-.288-.678-.433-1.183-.433h-1.643v9.567h1.643c.505 0 .899-.143 1.183-.424.284-.28.425-.62.425-1.019z"/></g><g fill="#7C8D9B"><path d="M391.53 230.813h-58.027v-78.659h37.662l20.365 20.365v58.294zm-56.738-1.289h55.448v-56.471l-19.609-19.609h-35.839v76.08z"/><path d="M391.53 230.813h-58.027v-78.659h37.396v20.632h20.632v58.027h-.001zm-56.738-1.289h55.448v-55.448h-20.632v-20.632h-34.816v76.08z"/><path d="M346.724 221.756h-1.625v-1.985h1.625v1.985zM350.089 210.021h3.611v9.658c0 .771-.217 1.355-.65 1.752-.433.397-1.035.596-1.806.596s-1.366-.199-1.787-.596c-.421-.396-.632-.98-.632-1.752v-1.174h1.264v1.247c0 .794.385 1.191 1.155 1.191.794 0 1.191-.397 1.191-1.191v-8.647h-2.347v-1.084zM361.787 219.499c0 1.686-1.019 2.527-3.051 2.527-2.033 0-3.052-.842-3.052-2.527v-1.535h1.265v1.607c0 .433.149.771.451 1.011.3.241.746.361 1.335.361.59 0 1.034-.12 1.336-.361.301-.24.452-.568.452-.983 0-.416-.046-.746-.136-.992-.091-.247-.273-.509-.551-.786l-3.177-3.105c-.374-.372-.629-.737-.769-1.093-.138-.354-.208-.803-.208-1.345 0-.806.25-1.429.75-1.868s1.254-.658 2.267-.658c1.937 0 2.905.842 2.905 2.526v1.534h-1.264v-1.605c0-.434-.142-.77-.424-1.012-.283-.239-.707-.36-1.272-.36s-.99.121-1.271.36c-.283.242-.424.572-.424.993 0 .423.042.752.126.994.083.239.271.493.559.758l3.232 3.105c.349.386.589.754.722 1.109s.199.804.199 1.345zM369.82 212.277v7.222c0 .807-.256 1.43-.768 1.869-.512.439-1.275.658-2.292.658-1.018 0-1.784-.219-2.302-.658s-.776-1.062-.776-1.869v-7.222c0-.806.257-1.429.769-1.868.511-.439 1.275-.658 2.292-.658s1.785.219 2.302.658c.516.44.775 1.063.775 1.868zm-1.263 7.222v-7.222c0-.962-.602-1.443-1.806-1.443-1.203 0-1.805.481-1.805 1.443v7.222c0 .963.602 1.444 1.805 1.444 1.204 0 1.806-.481 1.806-1.444zM373.341 221.756h-1.264v-11.735h1.264l3.917 9.026v-9.026h1.264v11.735h-1.264l-3.917-9.026v9.026z"/></g><g fill="#7C8D9B"><path d="M742.718 83.631h-58.025V4.973h37.661l20.364 20.364v58.294zm-56.738-1.289h55.447V25.871L721.819 6.262H685.98v76.08z"/><path d="M742.718 83.631h-58.025V4.973h37.396v20.631h20.631l-.002 58.027zm-56.738-1.289h55.447V26.894h-20.632V6.262H685.98v76.08z"/><path d="M697.912 74.573h-1.625v-1.985h1.625v1.985zM701.278 62.838h3.609v9.658c0 .771-.217 1.355-.648 1.752-.435.396-1.035.596-1.808.596-.77 0-1.364-.199-1.787-.596-.42-.396-.631-.98-.631-1.752v-1.174h1.265v1.247c0 .794.385 1.191 1.153 1.191.795 0 1.192-.397 1.192-1.191v-8.647h-2.347l.002-1.084zM712.976 72.316c0 1.686-1.018 2.527-3.051 2.527-2.034 0-3.051-.842-3.051-2.527v-1.535h1.264v1.607c0 .433.15.771.451 1.011.301.241.746.361 1.336.361s1.035-.12 1.336-.361c.301-.24.451-.568.451-.983 0-.416-.045-.746-.135-.992-.092-.247-.274-.509-.552-.786l-3.178-3.105c-.373-.372-.629-.737-.768-1.093-.139-.354-.207-.803-.207-1.345 0-.806.249-1.429.749-1.868.499-.439 1.255-.658 2.266-.658 1.938 0 2.906.842 2.906 2.526v1.534h-1.264v-1.605c0-.434-.143-.77-.425-1.012-.282-.239-.707-.36-1.271-.36-.566 0-.991.121-1.273.36-.282.242-.424.572-.424.993 0 .423.042.752.127.994.083.239.271.493.56.758l3.231 3.105c.349.386.589.754.723 1.109.132.355.199.804.199 1.345zM721.009 65.095v7.222c0 .807-.256 1.43-.768 1.869-.513.439-1.275.658-2.292.658-1.019 0-1.784-.219-2.303-.658-.518-.439-.776-1.062-.776-1.869v-7.222c0-.806.256-1.429.768-1.868.513-.439 1.276-.658 2.293-.658 1.019 0 1.785.219 2.304.658.514.439.774 1.062.774 1.868zm-1.264 7.221v-7.222c0-.962-.603-1.443-1.806-1.443s-1.806.481-1.806 1.443v7.222c0 .963.603 1.444 1.806 1.444 1.205.001 1.806-.481 1.806-1.444zM724.529 74.573h-1.265V62.838h1.265l3.917 9.026v-9.026h1.264v11.735h-1.264l-3.917-9.026v9.026z"/></g><g fill="#7C8D9B"><path d="M1019.508 553.029h-58.025v-78.658h37.662l20.363 20.364v58.294zm-56.737-1.289h55.447v-56.47l-19.608-19.608h-35.839v76.078z"/><path d="M1019.508 553.029h-58.025v-78.658h37.396v20.631h20.631l-.002 58.027zm-56.737-1.289h55.447v-55.448h-20.632V475.66h-34.815v76.08z"/><path d="M974.702 543.972h-1.625v-1.984h1.625v1.984zM978.068 532.236h3.609v9.658c0 .771-.217 1.354-.648 1.752-.435.396-1.035.596-1.808.596-.77 0-1.364-.199-1.786-.596-.421-.396-.632-.98-.632-1.752v-1.175h1.265v1.247c0 .794.385 1.191 1.153 1.191.795 0 1.192-.397 1.192-1.191v-8.646h-2.347l.002-1.084zM989.766 541.715c0 1.687-1.018 2.527-3.051 2.527-2.034 0-3.051-.842-3.051-2.527v-1.535h1.264v1.607c0 .433.15.771.451 1.011.301.241.746.361 1.336.361s1.035-.12 1.336-.361c.301-.24.451-.567.451-.982 0-.416-.045-.746-.135-.992-.092-.247-.274-.509-.551-.786l-3.179-3.105c-.373-.371-.629-.736-.768-1.093-.138-.354-.207-.803-.207-1.345 0-.806.249-1.429.749-1.868.499-.438 1.255-.658 2.266-.658 1.938 0 2.906.843 2.906 2.526v1.534h-1.264v-1.605c0-.434-.143-.77-.426-1.012-.281-.239-.707-.36-1.271-.36-.566 0-.991.121-1.273.36-.282.242-.424.572-.424.993 0 .423.042.752.127.994.083.238.271.492.56.758l3.231 3.104c.349.387.589.754.722 1.109.134.355.201.804.201 1.345zM997.799 534.493v7.222c0 .807-.256 1.43-.768 1.869s-1.275.658-2.292.658c-1.019 0-1.784-.219-2.302-.658-.519-.439-.777-1.062-.777-1.869v-7.222c0-.807.256-1.429.768-1.868.513-.439 1.276-.658 2.293-.658 1.019 0 1.785.219 2.304.658.514.439.774 1.063.774 1.868zm-1.264 7.222v-7.222c0-.962-.603-1.443-1.807-1.443-1.203 0-1.805.481-1.805 1.443v7.222c0 .963.602 1.444 1.805 1.444 1.206 0 1.807-.481 1.807-1.444zM1001.319 543.972h-1.265v-11.734h1.265l3.917 9.025v-9.025h1.264v11.734h-1.264l-3.917-9.025v9.025z"/></g><g fill="#7C8D9B"><path d="M924.798 362.486h-58.026v-78.659h37.662l20.364 20.364v58.295zm-56.736-1.289h55.446v-56.471L903.9 285.117h-35.84v76.08h.002z"/><path d="M924.798 362.486h-58.026v-78.659h37.396v20.632h20.631l-.001 58.027zm-56.736-1.289h55.446v-55.449h-20.632v-20.631h-34.814v76.08z"/><path d="M885.102 353.428h-1.625v-1.985h1.625v1.985zM890.245 353.428h-1.263v-4.207l-2.979-7.527h1.336l2.274 6.048 2.274-6.048h1.336l-2.979 7.547v4.187zM895.66 353.428h-1.264v-11.734h1.896l2.058 7.744 2.076-7.744h1.896v11.734h-1.265v-9.713l-2.111 7.908h-1.173l-2.113-7.908v9.713zM904.85 353.428v-11.734h1.265v10.651h3.304v1.083h-4.569z"/></g><g fill="#7C8D9B"><path d="M406.165 426.508h-58.026v-78.659h37.662l20.364 20.364v58.295zm-56.736-1.289h55.447v-56.471l-19.608-19.609h-35.839v76.08z"/><path d="M406.165 426.508h-58.026v-78.659h37.396v20.632h20.631l-.001 58.027zm-56.736-1.289h55.447V369.77h-20.632v-20.631h-34.815v76.08z"/><path d="M366.468 417.449h-1.625v-1.985h1.625v1.985zM371.612 417.449h-1.264v-4.207l-2.979-7.527h1.336l2.274 6.048 2.274-6.048h1.336l-2.979 7.547v4.187h.002zM377.027 417.449h-1.265v-11.734h1.896l2.058 7.744 2.076-7.744h1.896v11.734h-1.265v-9.713l-2.112 7.907h-1.173l-2.112-7.907v9.713zM386.217 417.449v-11.734h1.265v10.651h3.304v1.083h-4.569z"/></g><g fill="#7C8D9B"><path d="M234.653 625.771h-58.027v-78.658h37.662l20.365 20.363v58.295zm-56.737-1.288h55.448v-56.472l-19.609-19.608h-35.838l-.001 76.08z"/><path d="M234.653 625.771h-58.027v-78.658h37.395v20.632h20.632v58.026zm-56.737-1.288h55.448v-55.449h-20.631v-20.631h-34.816l-.001 76.08z"/><path d="M191.19 616.714h-1.625v-1.985h1.625v1.985zM194.711 616.714h-1.264V604.98h1.264v5.234h3.557v-5.234h1.264v11.733h-1.264v-5.416h-3.557v5.417zM206.752 604.979v1.084h-2.347v10.65h-1.264v-10.65h-2.347v-1.084h5.958zM209.279 616.714h-1.264V604.98h1.896l2.058 7.743 2.077-7.743h1.895v11.733h-1.264V607l-2.112 7.908h-1.174L209.279 607v9.714zM218.468 616.714V604.98h1.264v10.65h3.304v1.083h-4.568z"/></g><g fill="#7C8D9B"><path d="M815.68 1086.329h-58.025v-78.658h37.662l20.363 20.364v58.294zm-56.737-1.289h55.446v-56.471l-19.608-19.609h-35.838v76.08z"/><path d="M815.68 1086.329h-58.025v-78.658h37.396v20.631h20.631l-.002 58.027zm-56.737-1.289h55.446v-55.448h-20.63v-20.632h-34.815l-.001 76.08z"/><path d="M772.218 1077.271h-1.625v-1.985h1.625v1.985zM775.738 1077.271h-1.265v-11.735h1.265v5.235h3.557v-5.235h1.264v11.735h-1.264v-5.416h-3.557v5.416zM787.779 1065.536v1.084h-2.348v10.651h-1.264v-10.651h-2.347v-1.084h5.959zM790.307 1077.271h-1.264v-11.735h1.896l2.057 7.744 2.077-7.744h1.896v11.735h-1.264v-9.714l-2.112 7.908h-1.174l-2.112-7.908v9.714zM799.496 1077.271v-11.735h1.264v10.651h3.303v1.084h-4.567z"/></g><g fill="#7C8D9B"><path d="M581.745 1193.109h-58.026v-78.658h37.661l20.365 20.365v58.293zm-56.737-1.289h55.448v-56.471l-19.608-19.609h-35.84v76.08z"/><path d="M581.745 1193.109h-58.026v-78.658h37.395v20.633h20.632v58.025zm-56.737-1.289h55.448v-55.447h-20.632v-20.633h-34.816v76.08z"/><path d="M544.376 1184.053h-1.625v-1.986h1.625v1.986zM547.896 1184.053h-1.265v-11.736h1.896l2.059 7.745 2.077-7.745h1.896v11.736h-1.265v-9.713l-2.112 7.907h-1.173l-2.112-7.907v9.713zM559.991 1184.053h-2.906v-11.736h2.906c.938 0 1.651.225 2.14.669s.73 1.065.73 1.86v6.679c0 .806-.24 1.43-.721 1.869-.482.438-1.199.659-2.149.659zm1.607-2.529v-6.679c0-.385-.142-.724-.425-1.012-.282-.288-.677-.434-1.182-.434h-1.644v9.567h1.644c.505 0 .899-.144 1.182-.424.283-.279.425-.619.425-1.018z"/></g><g fill="#7C8D9B"><path d="M852.631 678.502h-58.027v-78.658h37.662l20.365 20.365v58.293zm-56.736-1.289h55.447v-56.471l-19.609-19.609h-35.838v76.08z"/><path d="M852.631 678.502h-58.027v-78.658H832v20.632h20.632l-.001 58.026zm-56.736-1.289h55.447v-55.447h-20.633v-20.633h-34.814v76.08z"/><path d="M815.262 669.445h-1.625v-1.986h1.625v1.986zM818.781 669.445h-1.264v-11.736h1.896l2.058 7.745 2.077-7.745h1.896v11.736h-1.265v-9.713l-2.11 7.907h-1.174l-2.113-7.907v9.713zM830.877 669.445h-2.906v-11.736h2.906c.938 0 1.652.225 2.139.669.488.444.731 1.065.731 1.86v6.679c0 .806-.241 1.43-.722 1.869-.481.439-1.198.659-2.148.659zm1.605-2.528v-6.679c0-.386-.142-.724-.425-1.013-.281-.288-.677-.433-1.182-.433h-1.644v9.567h1.644c.505 0 .899-.144 1.182-.425a1.37 1.37 0 0 0 .425-1.017z"/></g><g fill="#7C8D9B"><path d="M345.454 811.781h-58.027v-78.658h37.662l20.365 20.364v58.294zm-56.738-1.289h55.448v-56.471l-19.609-19.609h-35.839v76.08z"/><path d="M345.454 811.781h-58.027v-78.658h37.396v20.632h20.632v58.026zm-56.738-1.289h55.448v-55.448h-20.632v-20.632h-34.816v76.08z"/><path d="M300.648 802.724h-1.625v-1.984h1.625v1.984zM304.014 790.988h3.611v9.658c0 .771-.217 1.354-.65 1.752-.433.396-1.035.596-1.806.596-.77 0-1.366-.199-1.787-.596s-.632-.98-.632-1.752v-1.175h1.264v1.247c0 .794.385 1.191 1.155 1.191.794 0 1.192-.397 1.192-1.191v-8.646h-2.347v-1.084zM315.711 800.467c0 1.687-1.018 2.527-3.051 2.527s-3.051-.842-3.051-2.527v-1.535h1.264v1.607c0 .433.15.771.451 1.011.3.241.746.361 1.335.361.59 0 1.035-.12 1.336-.361.301-.24.452-.567.452-.982 0-.416-.045-.746-.135-.992-.092-.247-.274-.509-.552-.786l-3.177-3.105c-.374-.371-.629-.736-.768-1.093-.139-.354-.208-.803-.208-1.345 0-.806.25-1.429.75-1.868.5-.438 1.254-.658 2.266-.658 1.937 0 2.906.843 2.906 2.526v1.534h-1.265v-1.605c0-.434-.142-.77-.424-1.012-.283-.239-.707-.36-1.271-.36-.566 0-.991.121-1.272.36-.283.242-.424.572-.424.993 0 .423.042.752.126.994.083.238.271.492.559.758l3.232 3.104c.349.387.589.754.722 1.109.134.355.199.804.199 1.345zM323.745 793.245v7.222c0 .808-.256 1.43-.767 1.869-.513.439-1.276.658-2.293.658-1.018 0-1.783-.219-2.302-.658-.518-.439-.775-1.062-.775-1.869v-7.222c0-.806.256-1.429.768-1.868.511-.439 1.276-.658 2.292-.658 1.017 0 1.785.219 2.302.658.515.439.775 1.062.775 1.868zm-1.265 7.222v-7.222c0-.962-.602-1.443-1.806-1.443-1.203 0-1.805.481-1.805 1.443v7.222c0 .963.602 1.444 1.805 1.444 1.205 0 1.806-.481 1.806-1.444zM327.265 802.724h-1.264V790.99h1.264l3.917 9.025v-9.025h1.265v11.734h-1.265l-3.917-9.025v9.025z"/></g><g fill="#7C8D9B"><path d="M486.727 673.609H428.7v-78.658h37.662l20.363 20.364.002 58.294zm-56.738-1.289h55.448v-56.47l-19.609-19.608h-35.839v76.078z"/><path d="M486.727 673.609H428.7v-78.658h37.396v20.631h20.631v58.027zm-56.738-1.289h55.448v-55.448h-20.633V596.24h-34.815v76.08z"/><path d="M441.921 664.552h-1.625v-1.984h1.625v1.984zM445.287 652.816h3.609v9.657c0 .771-.217 1.355-.648 1.752-.434.396-1.035.597-1.807.597-.771 0-1.365-.199-1.787-.597-.42-.396-.631-.979-.631-1.752V661.3h1.264v1.247c0 .794.385 1.191 1.154 1.191.795 0 1.191-.397 1.191-1.191V653.9h-2.347l.002-1.084zM456.984 662.295c0 1.686-1.019 2.527-3.052 2.527s-3.051-.842-3.051-2.527v-1.535h1.265v1.607c0 .433.149.771.45 1.011.302.241.746.361 1.336.361.591 0 1.035-.12 1.337-.361.301-.24.45-.568.45-.983 0-.416-.045-.745-.135-.991-.092-.247-.274-.509-.551-.786l-3.179-3.105c-.372-.372-.629-.736-.768-1.093-.138-.354-.207-.803-.207-1.345 0-.807.249-1.43.749-1.868.499-.439 1.255-.658 2.267-.658 1.937 0 2.905.842 2.905 2.526v1.534h-1.264v-1.605c0-.434-.142-.77-.425-1.012-.282-.239-.707-.36-1.271-.36-.565 0-.991.121-1.272.36-.283.242-.425.572-.425.993 0 .423.042.752.127.994.084.238.271.492.56.758l3.231 3.104c.349.386.59.754.723 1.109.134.355.2.804.2 1.345zM465.018 655.073v7.222c0 .807-.256 1.43-.768 1.869s-1.275.658-2.292.658c-1.018 0-1.784-.219-2.302-.658-.519-.439-.777-1.062-.777-1.869v-7.222c0-.807.256-1.43.768-1.868.513-.439 1.276-.658 2.294-.658s1.784.219 2.303.658c.514.44.774 1.063.774 1.868zm-1.264 7.222v-7.222c0-.962-.602-1.443-1.806-1.443-1.203 0-1.806.481-1.806 1.443v7.222c0 .963.603 1.444 1.806 1.444 1.204 0 1.806-.481 1.806-1.444zM468.538 664.552h-1.264v-11.734h1.264l3.917 9.025v-9.025h1.264v11.734h-1.264l-3.917-9.025v9.025z"/></g><g fill="#7C8D9B"><path d="M1024.471 1128.089h-58.025v-78.658h37.662l20.363 20.364v58.294zm-56.739-1.289h55.448v-56.471l-19.608-19.609h-35.84v76.08z"/><path d="M1024.471 1128.089h-58.025v-78.658h37.396v20.632h20.631l-.002 58.026zm-56.739-1.289h55.448v-55.448h-20.631v-20.632h-34.815v76.08h-.002z"/><path d="M979.665 1119.031h-1.625v-1.985h1.625v1.985zM983.031 1107.296h3.609v9.658c0 .771-.217 1.354-.648 1.752-.435.396-1.035.596-1.807.596-.771 0-1.365-.199-1.787-.596-.42-.396-.631-.98-.631-1.752v-1.174h1.264v1.247c0 .794.385 1.19 1.154 1.19.795 0 1.191-.396 1.191-1.19v-8.647h-2.347l.002-1.084zM994.729 1116.774c0 1.686-1.018 2.526-3.051 2.526s-3.051-.842-3.051-2.526v-1.535h1.264v1.606c0 .434.15.771.451 1.012s.746.36 1.336.36 1.035-.12 1.336-.36.451-.568.451-.983c0-.416-.045-.746-.135-.992-.092-.247-.274-.509-.551-.786l-3.179-3.104c-.373-.372-.629-.737-.768-1.093-.138-.354-.207-.804-.207-1.346 0-.806.249-1.429.749-1.867.499-.439 1.255-.658 2.266-.658 1.938 0 2.906.842 2.906 2.525v1.534h-1.264v-1.604c0-.435-.143-.771-.426-1.012-.281-.239-.706-.36-1.271-.36s-.991.121-1.272.36c-.283.241-.425.571-.425.992 0 .424.042.752.127.994.083.239.271.493.56.758l3.231 3.105c.349.386.589.754.723 1.109.133.355.2.804.2 1.345zM1002.762 1109.553v7.223c0 .807-.256 1.43-.768 1.869-.512.438-1.275.657-2.292.657-1.019 0-1.784-.219-2.302-.657-.519-.439-.777-1.062-.777-1.869v-7.223c0-.806.256-1.429.768-1.868.513-.438 1.276-.657 2.293-.657 1.019 0 1.785.219 2.304.657.514.439.774 1.062.774 1.868zm-1.264 7.221v-7.223c0-.962-.602-1.442-1.807-1.442-1.202 0-1.805.48-1.805 1.442v7.223c0 .963.603 1.443 1.805 1.443 1.205.002 1.807-.48 1.807-1.443zM1006.282 1119.031h-1.265v-11.735h1.265l3.917 9.026v-9.026h1.264v11.735h-1.264l-3.917-9.026v9.026z"/></g><g fill="#7C8D9B"><path d="M1073.715 883.837h-58.025v-78.659h37.661l20.364 20.365v58.294zm-56.736-1.289h55.447v-56.471l-19.608-19.609h-35.839v76.08z"/><path d="M1073.715 883.837h-58.025v-78.659h37.395v20.633h20.632l-.002 58.026zm-56.736-1.289h55.447V827.1h-20.632v-20.632h-34.815v76.08z"/><path d="M1036.646 874.779h-1.625v-1.986h1.625v1.986zM1040.012 863.044h3.61v9.659c0 .77-.216 1.354-.649 1.751-.434.396-1.035.596-1.806.596s-1.366-.198-1.787-.596c-.421-.396-.632-.981-.632-1.751v-1.174h1.264v1.246c0 .793.387 1.19 1.155 1.19.794 0 1.192-.397 1.192-1.19v-8.646h-2.349l.002-1.085zM1051.709 872.521c0 1.686-1.018 2.527-3.051 2.527s-3.051-.843-3.051-2.527v-1.534h1.264v1.605c0 .435.149.771.452 1.013.3.239.745.36 1.335.36s1.035-.121 1.336-.36c.301-.24.452-.568.452-.983s-.046-.745-.137-.993c-.091-.246-.273-.508-.552-.785l-3.176-3.104c-.374-.373-.63-.737-.77-1.093-.138-.354-.206-.805-.206-1.346 0-.807.249-1.428.748-1.866.5-.439 1.255-.659 2.268-.659 1.937 0 2.905.841 2.905 2.525v1.535h-1.265v-1.604c0-.437-.141-.771-.424-1.015-.283-.237-.707-.358-1.272-.358s-.989.121-1.271.358c-.284.242-.425.572-.425.994s.042.752.127.994c.084.238.27.494.56.758l3.231 3.105c.349.385.589.754.723 1.108.133.357.199.804.199 1.345z"/></g><g fill="#7C8D9B"><path d="M280.713 1171.6h-58.025v-78.659h37.661l20.364 20.365v58.294zm-56.736-1.289h55.447v-56.471l-19.608-19.609h-35.839v76.08z"/><path d="M280.713 1171.6h-58.025v-78.659h37.395v20.633h20.632l-.002 58.026zm-56.736-1.289h55.447v-55.448h-20.632v-20.632h-34.815v76.08z"/><path d="M243.645 1162.542h-1.625v-1.986h1.625v1.986zM247.01 1150.807h3.61v9.659c0 .77-.216 1.354-.649 1.751-.434.396-1.035.596-1.806.596s-1.366-.198-1.787-.596c-.421-.396-.632-.981-.632-1.751v-1.174h1.264v1.246c0 .793.387 1.19 1.155 1.19.794 0 1.192-.397 1.192-1.19v-8.646h-2.349l.002-1.085zM258.708 1160.284c0 1.686-1.018 2.527-3.051 2.527s-3.051-.843-3.051-2.527v-1.534h1.264v1.605c0 .435.149.771.452 1.013.3.239.745.36 1.335.36s1.035-.121 1.336-.36c.301-.24.452-.568.452-.983s-.046-.745-.137-.993c-.091-.246-.273-.508-.552-.785l-3.176-3.104c-.374-.373-.63-.737-.77-1.093-.138-.354-.206-.805-.206-1.346 0-.807.249-1.428.748-1.866.5-.439 1.255-.659 2.268-.659 1.937 0 2.905.841 2.905 2.525v1.535h-1.265v-1.604c0-.437-.141-.771-.424-1.015-.283-.237-.707-.358-1.272-.358s-.989.121-1.271.358c-.284.242-.425.572-.425.994s.042.752.127.994c.084.238.27.494.56.758l3.231 3.105c.349.385.589.754.723 1.108.132.357.199.804.199 1.345z"/></g><g fill="#7C8D9B"><path d="M952.632 855.08h-58.026v-78.659h37.662l20.364 20.364v58.295zm-56.736-1.289h55.446V797.32l-19.607-19.609h-35.839v76.08z"/><path d="M952.632 855.08h-58.026v-78.659h37.396v20.632h20.631l-.001 58.027zm-56.736-1.289h55.446v-55.449H930.71v-20.631h-34.814v76.08z"/><path d="M912.936 846.021h-1.625v-1.985h1.625v1.985zM918.079 846.021h-1.263v-4.207l-2.979-7.527h1.336l2.274 6.048 2.274-6.048h1.336l-2.979 7.547v4.187zM923.494 846.021h-1.264v-11.734h1.896l2.058 7.744 2.076-7.744h1.896v11.734h-1.264v-9.714l-2.112 7.908h-1.173l-2.113-7.908v9.714zM932.684 846.021v-11.734h1.265v10.65h3.304v1.084h-4.569z"/></g><g fill="#7C8D9B"><path d="M531.938 864.531h-58.026v-78.659h37.662l20.364 20.364v58.295zm-56.737-1.289h55.447v-56.471l-19.608-19.609h-35.839v76.08z"/><path d="M531.938 864.531h-58.026v-78.659h37.396v20.632h20.631v58.027h-.001zm-56.737-1.289h55.447v-55.449h-20.633v-20.631h-34.814v76.08z"/><path d="M492.24 855.473h-1.625v-1.984h1.625v1.984zM497.384 855.473h-1.263v-4.207l-2.979-7.526h1.337l2.273 6.048 2.275-6.048h1.336l-2.979 7.547v4.186zM502.799 855.473h-1.264V843.74h1.896l2.059 7.744 2.076-7.744h1.896v11.733h-1.264v-9.713l-2.112 7.908h-1.173l-2.113-7.908v9.713h-.001zM511.989 855.473V843.74h1.264v10.65h3.304v1.083h-4.568z"/></g></svg>