<svg xmlns="http://www.w3.org/2000/svg" width="1100" height="1200" viewBox="0 0 1100 1200"><g fill="#7C8D9B"><path d="M907.768 349.533h-98.955v-134.14h64.229l34.729 34.729v99.411h-.003zm-96.757-2.199h94.561v-96.302l-33.44-33.44h-61.118l-.003 129.742z"/><path d="M907.768 349.533h-98.955v-134.14h63.771v35.184h35.184v98.956zm-96.757-2.199h94.561v-94.559h-35.187v-35.183h-59.374v129.742z"/><path d="M831.358 334.086h-2.771v-3.387h2.771v3.387zM837.098 314.073h6.157v16.472c0 1.314-.369 2.311-1.105 2.987-.739.677-1.768 1.016-3.08 1.016s-2.328-.339-3.048-1.016c-.72-.677-1.077-1.673-1.077-2.987v-2.001h2.153v2.126c0 1.353.657 2.031 1.972 2.031 1.354 0 2.031-.679 2.031-2.031v-14.747h-4.003v-1.85zM857.047 330.238c0 2.873-1.734 4.31-5.203 4.31s-5.203-1.437-5.203-4.31v-2.618h2.155v2.74c0 .738.257 1.314.771 1.725.513.411 1.271.616 2.276.616s1.767-.206 2.277-.616c.514-.41.771-.969.771-1.678 0-.708-.075-1.271-.229-1.692-.154-.421-.467-.867-.939-1.34l-5.418-5.296c-.637-.635-1.07-1.258-1.309-1.863-.235-.604-.354-1.37-.354-2.294 0-1.374.427-2.436 1.278-3.185.851-.749 2.139-1.123 3.862-1.123 3.305 0 4.957 1.435 4.957 4.308v2.618h-2.154v-2.738c0-.741-.242-1.312-.725-1.727-.481-.408-1.205-.614-2.171-.614s-1.688.206-2.171.614c-.48.412-.724.975-.724 1.694s.071 1.282.216 1.694c.145.408.462.842.953 1.293l5.512 5.296c.598.657 1.008 1.286 1.232 1.892s.34 1.37.34 2.294zM870.746 317.922v12.316c0 1.376-.438 2.438-1.309 3.187-.873.749-2.178 1.123-3.91 1.123-1.734 0-3.042-.374-3.927-1.123-.883-.749-1.322-1.811-1.322-3.187v-12.316c0-1.374.437-2.436 1.31-3.185.871-.749 2.175-1.123 3.909-1.123 1.733 0 3.043.374 3.926 1.123.881.749 1.323 1.811 1.323 3.185zm-2.154 12.316v-12.316c0-1.641-1.027-2.461-3.08-2.461-2.052 0-3.078.82-3.078 2.461v12.316c0 1.643 1.026 2.463 3.078 2.463 2.052 0 3.08-.82 3.08-2.463zM876.75 334.086h-2.155v-20.013h2.155l6.681 15.394v-15.394h2.155v20.013h-2.155l-6.681-15.394v15.394z"/></g><g fill="#7C8D9B"><path d="M655.883 175.258h-98.956V41.118h64.229l34.729 34.729-.002 99.411zm-96.757-2.199h94.558V76.757l-33.439-33.44h-61.117l-.002 129.742z"/><path d="M655.883 175.258h-98.956V41.118h63.771v35.184h35.185v98.956zm-96.757-2.199h94.558V78.5H618.5V43.316h-59.374v129.743z"/><path d="M592.667 159.811h-2.771v-3.387h2.771v3.387zM598.407 139.798h6.157v16.472c0 1.314-.369 2.312-1.107 2.987-.738.677-1.766 1.016-3.079 1.016-1.312 0-2.33-.339-3.048-1.016-.718-.678-1.077-1.673-1.077-2.987v-2.001h2.154v2.126c0 1.354.658 2.031 1.971 2.031 1.354 0 2.034-.679 2.034-2.031v-14.747h-4.005v-1.85zM618.355 155.963c0 2.873-1.734 4.31-5.203 4.31s-5.201-1.437-5.201-4.31v-2.618h2.154v2.74c0 .736.255 1.312.771 1.725.511.41 1.271.616 2.275.616s1.767-.206 2.277-.616c.515-.41.771-.969.771-1.678 0-.708-.075-1.271-.23-1.692-.154-.421-.468-.866-.939-1.34l-5.416-5.296c-.638-.635-1.072-1.258-1.312-1.863-.234-.604-.353-1.369-.353-2.294 0-1.374.426-2.436 1.274-3.185.854-.749 2.14-1.123 3.865-1.123 3.305 0 4.957 1.435 4.957 4.308v2.618h-2.156v-2.738c0-.74-.239-1.312-.724-1.727-.483-.408-1.205-.614-2.171-.614s-1.688.206-2.17.614c-.482.412-.725.975-.725 1.694s.07 1.282.218 1.693c.143.408.459.843.953 1.293l5.511 5.296c.596.657 1.006 1.286 1.231 1.894.23.604.343 1.368.343 2.293z"/></g><g fill="#7C8D9B"><path d="M145.145 553.726H46.188V419.585h64.228l34.729 34.729v99.412zm-96.757-2.2h94.558v-96.304l-33.439-33.438H48.388v129.742z"/><path d="M145.145 553.726H46.188V419.585h63.772v35.184h35.184l.001 98.957zm-96.757-2.2h94.558v-94.561h-35.183v-35.184H48.388v129.745z"/><path d="M77.446 538.278h-2.771v-3.389h2.771v3.389zM86.22 538.278h-2.154v-7.175l-5.08-12.84h2.278l3.879 10.315 3.88-10.315H91.3l-5.08 12.87v7.145zM95.454 538.278H93.3v-20.015h3.232l3.51 13.208 3.541-13.208h3.232v20.015h-2.155v-16.563l-3.602 13.486h-2.001l-3.604-13.486.001 16.563zM111.125 538.278v-20.015h2.155v18.166h5.634v1.849h-7.789z"/></g><g fill="#7C8D9B"><path d="M472.553 509.184h-98.957V375.043h64.229l34.729 34.729v99.412zm-96.759-2.2h94.561v-96.303l-33.441-33.439h-61.117l-.003 129.742z"/><path d="M472.553 509.184h-98.957V375.043h63.771v35.186h35.186v98.955zm-96.759-2.2h94.561v-94.559h-35.187V377.24h-59.374v129.744z"/><path d="M398.433 493.736h-2.771v-3.387h2.771v3.387zM404.437 493.736h-2.155v-20.014h2.155v8.93h6.063v-8.93h2.155v20.014H410.5V484.5h-6.063v9.236zM424.971 473.723v1.85h-4.004v18.164h-2.153v-18.164h-4.002v-1.85h10.159zM429.28 493.736h-2.154v-20.014h3.232l3.51 13.209 3.541-13.209h3.231v20.014h-2.155v-16.564l-3.603 13.486h-2.002l-3.603-13.486.003 16.564zM444.95 493.736v-20.014h2.156v18.166h5.633v1.848h-7.789z"/></g><g fill="#7C8D9B"><path d="M1022.107 1115.43h-98.956V981.289h64.227l34.729 34.729v99.412zm-96.755-2.2h94.56v-96.305l-33.441-33.438h-61.116l-.003 129.743z"/><path d="M1022.107 1115.43h-98.956V981.289h63.771v35.184h35.186v98.957h-.001zm-96.755-2.2h94.56v-94.561h-35.188v-35.184h-59.372v129.745z"/><path d="M958.38 1099.982h-2.771v-3.389h2.771v3.389zM964.383 1099.982h-2.154v-20.016h3.232l3.509 13.209 3.541-13.209h3.232v20.016h-2.154v-16.564l-3.602 13.486h-2.003l-3.604-13.486.003 16.564zM985.009 1099.982h-4.957v-20.016h4.957c1.603 0 2.817.383 3.648 1.143.831.758 1.246 1.814 1.246 3.172v11.391c0 1.375-.41 2.438-1.23 3.188-.819.745-2.043 1.122-3.664 1.122zm2.74-4.31v-11.391c0-.656-.242-1.232-.725-1.727-.481-.488-1.153-.736-2.018-.736h-2.802v16.314h2.802c.862 0 1.534-.242 2.018-.723a2.352 2.352 0 0 0 .725-1.737z"/></g><g fill="#7C8D9B"><path d="M457.225 1063.512h-98.956V929.37h64.227l34.729 34.729v99.413zm-96.757-2.2h94.56V965.01l-33.441-33.438H360.47l-.002 129.74z"/><path d="M457.225 1063.512h-98.956V929.37h63.771v35.185h35.185v98.957zm-96.757-2.2h94.56v-94.561h-35.187v-35.184h-59.373v129.745z"/><path d="M393.498 1048.064h-2.771v-3.388h2.771v3.388zM399.501 1048.064h-2.155v-20.015h3.233l3.509 13.209 3.541-13.209h3.232v20.015h-2.154V1031.5l-3.602 13.486h-2.002L399.5 1031.5l.001 16.564zM420.127 1048.064h-4.957v-20.015h4.957c1.602 0 2.817.383 3.648 1.142.831.758 1.246 1.815 1.246 3.172v11.391c0 1.375-.41 2.438-1.23 3.188-.821.746-2.043 1.122-3.664 1.122zm2.74-4.31v-11.391c0-.656-.242-1.232-.726-1.726-.48-.489-1.152-.737-2.016-.737h-2.802v16.315h2.802c.862 0 1.534-.241 2.016-.724a2.35 2.35 0 0 0 .726-1.737z"/></g><g fill="#7C8D9B"><path d="M735.834 887.795h-98.955V753.654h64.227l34.73 34.729-.002 99.412zm-96.757-2.199h94.56v-96.303l-33.44-33.438h-61.118l-.002 129.741z"/><path d="M735.834 887.795h-98.955V753.654h63.771v35.185h35.184v98.956zm-96.757-2.199h94.56v-94.559h-35.186v-35.186h-59.374v129.745z"/><path d="M659.426 872.348h-2.771v-3.387h2.771v3.387zM665.164 852.334h6.157v16.473c0 1.314-.369 2.312-1.106 2.986-.74.678-1.767 1.016-3.08 1.016-1.312 0-2.328-.338-3.047-1.016-.72-.676-1.078-1.672-1.078-2.986v-2.002h2.154v2.127c0 1.354.657 2.031 1.971 2.031 1.354 0 2.032-.68 2.032-2.031v-14.748h-4.003v-1.85zM685.113 868.5c0 2.873-1.734 4.309-5.203 4.309s-5.203-1.436-5.203-4.309v-2.619h2.155v2.74c0 .737.257 1.312.771 1.725.512.411 1.271.617 2.277.617s1.766-.207 2.277-.617c.514-.41.771-.969.771-1.678 0-.707-.077-1.271-.231-1.691-.153-.422-.467-.866-.938-1.34l-5.418-5.297c-.637-.635-1.071-1.258-1.31-1.863-.234-.604-.354-1.368-.354-2.293 0-1.375.426-2.436 1.278-3.186.851-.748 2.139-1.123 3.862-1.123 3.305 0 4.957 1.436 4.957 4.309v2.617h-2.154v-2.737c0-.739-.242-1.313-.725-1.728-.481-.408-1.205-.613-2.17-.613-.966 0-1.689.205-2.171.613-.481.412-.724.976-.724 1.695 0 .719.07 1.28.216 1.691.144.408.462.843.953 1.293l5.512 5.298c.597.655 1.007 1.284 1.231 1.892.228.606.341 1.371.341 2.295zM698.812 856.184V868.5c0 1.375-.438 2.438-1.309 3.186-.873.75-2.177 1.123-3.91 1.123-1.734 0-3.043-.373-3.926-1.123-.883-.747-1.324-1.811-1.324-3.186v-12.316c0-1.375.438-2.436 1.311-3.186.871-.748 2.175-1.123 3.908-1.123 1.734 0 3.043.375 3.927 1.123.881.75 1.323 1.811 1.323 3.186zm-2.154 12.316v-12.316c0-1.641-1.027-2.461-3.08-2.461-2.052 0-3.078.82-3.078 2.461V868.5c0 1.643 1.026 2.463 3.078 2.463 2.053 0 3.08-.82 3.08-2.463zM704.816 872.348h-2.155v-20.014h2.155l6.681 15.396v-15.396h2.155v20.014h-2.155l-6.681-15.395v15.395z"/></g><g fill="#7C8D9B"><path d="M148.243 1142.387H49.287v-134.141h64.228l34.729 34.729-.001 99.412zm-96.757-2.199h94.558v-96.301l-33.44-33.439H51.486v129.74z"/><path d="M148.243 1142.387H49.287v-134.141h63.772v35.184h35.184v98.957zm-96.757-2.199h94.558v-94.559H110.86v-35.184H51.486v129.743z"/><path d="M85.027 1126.939h-2.771v-3.389h2.771v3.389zM90.768 1106.928h6.157v16.473c0 1.312-.369 2.311-1.108 2.986-.738.676-1.765 1.018-3.079 1.018-1.312 0-2.33-.342-3.047-1.018-.718-.678-1.078-1.674-1.078-2.986v-2h2.155v2.125c0 1.354.658 2.029 1.97 2.029 1.354 0 2.034-.678 2.034-2.029v-14.746h-4.004v-1.852zM110.716 1123.092c0 2.873-1.735 4.312-5.203 4.312s-5.201-1.438-5.201-4.312v-2.617h2.154v2.74c0 .738.255 1.314.771 1.725.511.41 1.271.615 2.276.615s1.766-.205 2.278-.615c.514-.408.771-.969.771-1.678s-.076-1.271-.231-1.691c-.155-.42-.468-.867-.94-1.342l-5.416-5.295c-.638-.635-1.073-1.258-1.311-1.861-.235-.604-.352-1.371-.352-2.295 0-1.373.425-2.438 1.275-3.186.853-.75 2.139-1.123 3.865-1.123 3.304 0 4.957 1.436 4.957 4.309v2.617h-2.156v-2.736c0-.742-.24-1.314-.724-1.729-.483-.406-1.205-.613-2.171-.613-.965 0-1.688.206-2.17.613-.482.412-.723.977-.723 1.693 0 .721.07 1.283.217 1.695.142.407.459.842.953 1.293l5.511 5.295c.595.658 1.005 1.287 1.232 1.893.225.605.338 1.369.338 2.293z"/></g><g fill="#7C8D9B"><path d="M830.248 609.738h-98.957v-134.14h64.229l34.729 34.729-.001 99.411zm-96.758-2.199h94.559v-96.301l-33.438-33.441h-61.12l-.001 129.742z"/><path d="M830.248 609.738h-98.957v-134.14h63.773v35.186h35.184v98.954zm-96.758-2.199h94.559V512.98h-35.184v-35.186H733.49v129.745z"/><path d="M762.549 594.291h-2.771v-3.387h2.771v3.387zM771.322 594.291h-2.154v-7.174l-5.08-12.838h2.279l3.879 10.312 3.879-10.312h2.277l-5.08 12.869v7.143zM780.557 594.291h-2.152v-20.012h3.23l3.51 13.207 3.541-13.207h3.232v20.012h-2.154v-16.562l-3.602 13.486h-2.002l-3.604-13.486.001 16.562zM796.229 594.291v-20.012h2.154v18.166h5.635v1.846h-7.789z"/></g></svg>