<svg xmlns="http://www.w3.org/2000/svg" width="720" height="572.972" viewBox="0 0 720 572.972"><path fill="#F9FAF3" d="M360 560.723c-73.251 0-142.118-28.525-193.914-80.322-51.796-51.796-80.322-120.663-80.322-193.914 0-73.251 28.525-142.118 80.322-193.915S286.749 12.25 360 12.25s142.118 28.525 193.914 80.322c51.797 51.796 80.322 120.664 80.322 193.915S605.711 428.604 553.914 480.4C502.118 532.197 433.251 560.723 360 560.723z"/><path fill="#EFF0E9" d="M360 19.25c36.083 0 71.079 7.064 104.016 20.995 31.821 13.459 60.402 32.729 84.949 57.276 24.547 24.547 43.817 53.128 57.276 84.949 13.932 32.937 20.995 67.933 20.995 104.016s-7.063 71.079-20.995 104.016c-13.459 31.821-32.729 60.401-57.276 84.949-24.547 24.547-53.128 43.817-84.949 57.276-32.937 13.932-67.933 20.995-104.016 20.995s-71.079-7.063-104.016-20.995c-31.82-13.459-60.401-32.729-84.948-57.276-24.547-24.548-43.817-53.128-57.276-84.949-13.931-32.937-20.995-67.933-20.995-104.016s7.064-71.079 20.995-104.016c13.459-31.821 32.729-60.401 57.276-84.949 24.547-24.547 53.128-43.817 84.948-57.276C288.921 26.314 323.917 19.25 360 19.25m0-14c-155.322 0-281.236 125.914-281.236 281.236S204.678 567.722 360 567.722s281.236-125.914 281.236-281.236S515.322 5.25 360 5.25z"/><g fill="#748988" stroke="#748988" stroke-width="4" stroke-miterlimit="10"><path d="M352.151 255.63c-40.919 0-74.213-37.91-74.213-84.509a3.901 3.901 0 0 1 3.903-3.901h140.626a3.899 3.899 0 0 1 3.902 3.901c-.005 46.604-33.299 84.509-74.218 84.509zm-66.322-80.6c1.765 40.481 30.838 72.798 66.323 72.798 35.49 0 64.561-32.317 66.33-72.798H285.829z"/><path d="M426.316 269.072l-7.807-.024.04-13.476H285.724l-.043 13.5-7.805-.024.05-17.389a3.903 3.903 0 0 1 3.903-3.893H422.46c1.044 0 2.038.411 2.765 1.145a3.912 3.912 0 0 1 1.14 2.772l-.049 17.389z"/><path d="M436.287 307.304h-168.27a3.905 3.905 0 0 1-3.06-1.479l-26.809-33.906a3.91 3.91 0 0 1-.453-4.122 3.895 3.895 0 0 1 3.512-2.195h221.888c1.5 0 2.866.854 3.518 2.201a3.915 3.915 0 0 1-.451 4.12l-26.81 33.902a3.926 3.926 0 0 1-3.065 1.479zm-166.379-7.802h164.487l20.638-26.1H249.272l20.636 26.1z"/><path d="M436.996 443.549H267.304a3.901 3.901 0 0 1-3.903-3.901V303.399a3.903 3.903 0 1 1 7.806 0v132.348h161.884V303.399c0-2.16 1.744-3.905 3.905-3.905s3.905 1.745 3.905 3.905v136.252a3.908 3.908 0 0 1-3.905 3.898z"/><path d="M466.247 474.993H238.056a3.912 3.912 0 0 1-3.579-2.349 3.915 3.915 0 0 1 .724-4.223l29.247-31.431a3.917 3.917 0 0 1 5.519-.201 3.907 3.907 0 0 1 .196 5.521l-23.145 24.872h210.261l-23.145-24.872a3.907 3.907 0 0 1 .198-5.521 3.916 3.916 0 0 1 5.518.201l29.25 31.431a3.926 3.926 0 0 1 .721 4.223 3.912 3.912 0 0 1-3.574 2.349zM409.433 418.276H294.861a3.906 3.906 0 0 1-3.902-3.91V349.64a3.899 3.899 0 0 1 3.902-3.905h114.572a3.9 3.9 0 0 1 3.905 3.905v64.726a3.908 3.908 0 0 1-3.905 3.91zm-110.669-7.811h106.768v-56.92H298.764v56.92z"/><path d="M352.151 393.312c-6.521 0-11.825-5.344-11.825-11.917 0-6.572 5.305-11.912 11.825-11.912s11.824 5.34 11.824 11.912c.001 6.574-5.304 11.917-11.824 11.917zm0-16.027c-2.214 0-4.018 1.843-4.018 4.11 0 2.266 1.804 4.107 4.018 4.107s4.015-1.842 4.015-4.107c0-2.259-1.804-4.11-4.015-4.11zM512.948 129.331c-8.34 0-15.13-6.783-15.13-15.131 0-8.348 6.79-15.131 15.13-15.131 8.346 0 15.137 6.788 15.137 15.131s-6.791 15.131-15.137 15.131zm0-22.457c-4.039 0-7.324 3.286-7.324 7.326 0 4.036 3.285 7.321 7.324 7.321 4.045 0 7.329-3.285 7.329-7.321 0-4.04-3.284-7.326-7.329-7.326z"/><path d="M512.948 144.411H367.99a3.902 3.902 0 1 1 0-7.804h141.059v-11.179a3.901 3.901 0 0 1 3.899-3.907 3.9 3.9 0 0 1 3.908 3.907v15.083c0 2.155-1.743 3.9-3.908 3.9z"/><path d="M352.151 161.011c-10.888 0-19.744-8.861-19.744-19.743 0-10.881 8.856-19.743 19.744-19.743 10.891 0 19.743 8.862 19.743 19.743.001 10.882-8.852 19.743-19.743 19.743zm0-31.68c-6.583 0-11.939 5.356-11.939 11.938 0 6.583 5.356 11.939 11.939 11.939 6.58 0 11.938-5.356 11.938-11.939 0-6.582-5.358-11.938-11.938-11.938z"/><path d="M348.249 153.201h7.803v17.92h-7.803z"/></g></svg>