<svg xmlns="http://www.w3.org/2000/svg" width="720" height="572.972" viewBox="0 0 720 572.972"><path fill="#F9FAF3" d="M360 560.722c-73.251 0-142.118-28.525-193.914-80.322-51.796-51.796-80.322-120.663-80.322-193.914s28.525-142.118 80.322-193.914S286.749 12.25 360 12.25s142.118 28.525 193.914 80.322c51.797 51.796 80.322 120.663 80.322 193.914S605.711 428.604 553.914 480.4C502.118 532.197 433.251 560.722 360 560.722z"/><path fill="#EFF0E9" d="M360 19.25c36.083 0 71.079 7.064 104.016 20.995 31.821 13.459 60.402 32.729 84.949 57.276s43.817 53.128 57.276 84.948c13.932 32.938 20.995 67.934 20.995 104.016 0 36.083-7.063 71.079-20.995 104.016-13.459 31.821-32.729 60.401-57.276 84.949-24.547 24.547-53.128 43.817-84.949 57.276-32.937 13.932-67.933 20.995-104.016 20.995s-71.079-7.063-104.016-20.995c-31.82-13.459-60.401-32.729-84.948-57.276-24.547-24.548-43.817-53.128-57.276-84.949-13.931-32.937-20.995-67.933-20.995-104.016s7.064-71.079 20.995-104.016c13.459-31.82 32.729-60.401 57.276-84.948s53.128-43.818 84.948-57.276C288.921 26.314 323.917 19.25 360 19.25m0-14c-155.322 0-281.236 125.914-281.236 281.236S204.678 567.722 360 567.722s281.236-125.914 281.236-281.236S515.322 5.25 360 5.25z"/><path fill="#748988" d="M493.208 211.194h-70.015c11.85-6.742 17.89-16.38 17.89-28.958 0-31.147-19.829-34.75-34.75-34.75-19.117 0-37.369 21.945-46.333 44.026-8.965-22.081-27.21-44.026-46.333-44.026-14.92 0-34.75 3.603-34.75 34.75 0 12.579 6.04 22.216 17.89 28.958h-70.015a5.792 5.792 0 0 0-5.792 5.792v69.5a5.792 5.792 0 0 0 5.792 5.791h23.167v127.416a5.793 5.793 0 0 0 5.791 5.793h208.5a5.795 5.795 0 0 0 5.793-5.793V292.277h23.165a5.792 5.792 0 0 0 5.792-5.791v-69.5a5.793 5.793 0 0 0-5.792-5.792zm-86.875-52.125c14.671 0 23.167 3.789 23.167 23.167 0 22.38-33.048 28.229-63.256 28.891 3.224-22.189 23.224-52.058 40.089-52.058zM290.5 182.236c0-19.377 8.496-23.167 23.167-23.167 16.866 0 36.865 29.869 40.089 52.057-30.208-.662-63.256-6.51-63.256-28.89zm40.542 231.666h-69.5V292.277h69.5v121.625zm0-133.209h-98.458v-57.916h98.458v57.916zm46.333 133.209h-34.75V292.277h34.75v121.625zm0-133.209h-34.75v-57.916h34.75v57.916zm81.083 133.209h-69.5V292.277h69.5v121.625zm28.96-133.209H388.958v-57.916h98.46v57.916z"/></svg>