<svg xmlns="http://www.w3.org/2000/svg" width="720" height="572.972" viewBox="0 0 720 572.972"><path fill="#F9FAF3" d="M360 560.722c-73.251 0-142.118-28.525-193.914-80.322-51.796-51.796-80.322-120.663-80.322-193.914s28.525-142.118 80.322-193.914S286.749 12.25 360 12.25s142.118 28.525 193.914 80.322c51.797 51.796 80.322 120.663 80.322 193.914S605.711 428.604 553.914 480.4C502.118 532.197 433.251 560.722 360 560.722z"/><path fill="#EFF0E9" d="M360 19.25c36.083 0 71.079 7.064 104.016 20.995 31.821 13.459 60.402 32.729 84.949 57.276s43.817 53.128 57.276 84.948c13.932 32.938 20.995 67.934 20.995 104.016 0 36.083-7.063 71.079-20.995 104.016-13.459 31.821-32.729 60.401-57.276 84.949-24.547 24.547-53.128 43.817-84.949 57.276-32.937 13.932-67.933 20.995-104.016 20.995s-71.079-7.063-104.016-20.995c-31.82-13.459-60.401-32.729-84.948-57.276-24.547-24.548-43.817-53.128-57.276-84.949-13.931-32.937-20.995-67.933-20.995-104.016s7.064-71.079 20.995-104.016c13.459-31.82 32.729-60.401 57.276-84.948s53.128-43.818 84.948-57.276C288.921 26.314 323.917 19.25 360 19.25m0-14c-155.322 0-281.236 125.914-281.236 281.236S204.678 567.722 360 567.722s281.236-125.914 281.236-281.236S515.322 5.25 360 5.25z"/><path fill="#748988" stroke="#748988" stroke-width="4" stroke-miterlimit="10" d="M389.982 147.646l-43.126-21.454 36.693-73.767 43.122 21.452-36.689 73.769zm-30.849-25.573l26.729 13.293 28.536-57.367-26.726-13.295-28.539 57.369z"/><path fill="#748988" stroke="#748988" stroke-width="4" stroke-miterlimit="10" d="M364.588 204.922a20.45 20.45 0 0 1-9.405-2.307l-30.488-15.834a20.285 20.285 0 0 1-10.061-11.967 20.278 20.278 0 0 1 1.35-15.584l14.663-28.231a20.38 20.38 0 0 1 18.146-11.018c3.25 0 6.5.796 9.401 2.302l30.494 15.832a20.308 20.308 0 0 1 10.062 11.977c1.641 5.208 1.166 10.742-1.355 15.584l-14.658 28.231a20.396 20.396 0 0 1-18.149 11.015zm-15.796-75.79a11.241 11.241 0 0 0-10.021 6.082l-14.663 28.24a11.183 11.183 0 0 0-.751 8.592 11.233 11.233 0 0 0 5.552 6.612l30.489 15.834c5.43 2.812 12.422.55 15.213-4.81l14.656-28.235a11.159 11.159 0 0 0 .746-8.597 11.22 11.22 0 0 0-5.553-6.612l-30.493-15.83a11.003 11.003 0 0 0-5.175-1.276z"/><path fill="#748988" stroke="#748988" stroke-width="4" stroke-miterlimit="10" d="M442.019 460.537l-61.657-41.258 2.64-3.816c46.14-66.852.312-144.808-.161-145.589l7.852-4.708c.486.814 47.564 80.897 2.408 151.629l45.34 30.336c5.704-12.539 20.712-49.059 24.202-92.803 5.736-71.781-20.656-128.073-78.45-167.292l5.141-7.578c144.762 98.252 55.947 274.754 55.031 276.534l-2.346 4.545z"/><path fill="#748988" stroke="#748988" stroke-width="4" stroke-miterlimit="10" d="M364.452 413.093H245.509c-10.387 0-18.834-9.17-18.834-20.436v-4.1c0-11.266 8.447-20.438 18.834-20.438h118.943c10.387 0 18.834 9.172 18.834 20.438v4.1c0 11.266-8.447 20.436-18.834 20.436zm-118.943-35.818c-5.337 0-9.678 5.061-9.678 11.283v4.1c0 6.219 4.341 11.279 9.678 11.279h118.943c5.338 0 9.679-5.061 9.679-11.279v-4.1c0-6.219-4.341-11.283-9.679-11.283H245.509zM338.675 341.119l-27.924-20.221v-53.377h9.155v48.701l18.242 13.211 14.851-12.947-.389-48.933 9.156-.072.42 53.153zM427.369 298.46c-11.923 0-21.633-9.91-21.633-22.083 0-12.186 9.7-22.093 21.633-22.093 11.923 0 21.623 9.907 21.623 22.093 0 12.173-9.7 22.083-21.623 22.083zm0-35.021c-6.875 0-12.478 5.803-12.478 12.938 0 7.126 5.603 12.929 12.478 12.929s12.468-5.803 12.468-12.929c0-7.135-5.593-12.938-12.468-12.938z"/><path fill="#748988" stroke="#748988" stroke-width="4" stroke-miterlimit="10" d="M490.519 482.339H236.027l-.577-3.906c-.076-.527-7.191-52.887 44.208-72.193l.778-.289h86.104c1.487 0 2.976-.447 4.425-1.342l2.52-1.537 117.034 79.267zm-246.302-9.154H460.67l-87.652-59.373a16.878 16.878 0 0 1-6.481 1.293h-84.422c-36.081 13.996-38.273 46.777-37.898 58.08zM395.803 263.507c-10.809 0-19.609-8.838-19.609-19.701 0-10.863 8.802-19.706 19.609-19.706 10.807 0 19.601 8.843 19.601 19.706-.001 10.863-8.796 19.701-19.601 19.701zm0-30.243c-5.767 0-10.451 4.727-10.451 10.542 0 5.82 4.686 10.55 10.451 10.55 5.76 0 10.443-4.729 10.443-10.55 0-5.816-4.684-10.542-10.443-10.542z"/><g><path fill="#748988" stroke="#748988" stroke-width="4" stroke-miterlimit="10" d="M391.346 272.1h-90.942V167.598l4.397-.174s6.482-.255 10.628-.255c1.634 0 3.114 0 4.35.299l3.125.188.952 3.008a11.224 11.224 0 0 0 5.559 6.621l30.486 15.834c5.416 2.808 12.421.554 15.208-4.81l7.586-14.618 8.643 2.11.004 58.192-1.797 1.372c-2.656 2.034-4.186 5.083-4.186 8.364 0 3.286 1.529 6.335 4.186 8.364l1.797 1.373V272.1h.004zm-81.786-9.157h72.631v-5.114c-3.821-3.706-5.979-8.722-5.979-14.091a19.478 19.478 0 0 1 5.979-14.086v-35.33a20.375 20.375 0 0 1-17.103 9.231c-3.25 0-6.505-.796-9.408-2.298l-30.489-15.834a20.252 20.252 0 0 1-8.847-8.968l-2.021-.112c-1.524.013-3.241.049-4.771.094v86.507l.008.001z"/></g></svg>