<svg xmlns="http://www.w3.org/2000/svg" width="1624" height="1200" viewBox="0 0 1624 1200"><g fill="#7C8D9B"><path d="M821.634 330.474H677.445V135.018h93.584l50.604 50.604.001 144.852zm-140.986-3.204H818.43V186.948l-48.728-48.727h-89.055l.001 189.049z"/><path d="M821.634 330.474H677.445V135.018h92.922v51.267h51.268l-.001 144.189zm-140.986-3.204H818.43V189.488h-51.269v-51.266h-86.514l.001 189.048z"/><path d="M713.636 307.966h-4.038v-4.935h4.038v4.935zM722.383 307.966h-3.141v-29.16h3.141v13.011h8.839v-13.011h3.142v29.16h-3.142v-13.458h-8.839v13.458zM752.304 278.806v2.694h-5.831v26.466h-3.141V281.5H737.5v-2.694h14.804zM758.584 307.966h-3.142v-29.16h4.711l5.111 19.244 5.16-19.244h4.709v29.16h-3.141v-24.135l-5.247 19.65h-2.916l-5.25-19.65v24.135h.005zM781.416 307.966v-29.16h3.141v26.469h8.209v2.691h-11.35z"/></g><g fill="#7C8D9B"><path d="M533.995 888.737H389.806V693.281h93.585l50.604 50.604v144.852zm-140.984-3.204h137.781V745.212l-48.728-48.728H393.01l.001 189.049z"/><path d="M533.995 888.737H389.806V693.281h92.923v51.268h51.269l-.003 144.188zm-140.984-3.204h137.781V747.752h-51.268v-51.268H393.01l.001 189.049z"/><path d="M422.658 866.229h-4.037v-4.935h4.037v4.935zM431.021 837.069h8.974v24c0 1.915-.539 3.365-1.615 4.354-1.077.985-2.572 1.479-4.487 1.479-1.914 0-3.395-.494-4.438-1.479-1.047-.985-1.571-2.438-1.571-4.354v-2.916h3.143v3.099c0 1.972.956 2.96 2.87 2.96 1.976 0 2.963-.988 2.963-2.96v-21.487h-5.834l-.005-2.696zM460.089 860.622c0 4.187-2.528 6.279-7.582 6.279s-7.581-2.096-7.581-6.279v-3.814h3.142v3.993c0 1.076.374 1.915 1.122 2.514.746.599 1.854.896 3.317.896 1.466 0 2.572-.301 3.32-.896.748-.597 1.121-1.411 1.121-2.443 0-1.031-.111-1.854-.336-2.466-.227-.612-.682-1.266-1.368-1.952l-7.896-7.717c-.928-.928-1.562-1.833-1.905-2.718-.344-.879-.517-1.994-.517-3.342 0-2.003.62-3.549 1.862-4.642 1.24-1.092 3.116-1.637 5.629-1.637 4.813 0 7.222 2.091 7.222 6.275v3.813h-3.14V842.5c0-1.079-.353-1.914-1.056-2.517-.701-.596-1.759-.896-3.162-.896-1.405 0-2.461.301-3.161.896-.704.603-1.056 1.421-1.056 2.469 0 1.05.104 1.868.312 2.471.208.594.673 1.229 1.389 1.884l8.031 7.717c.867.957 1.464 1.873 1.794 2.758.335.881.499 1.994.499 3.34zM480.051 842.677v17.945c0 2.006-.637 3.552-1.906 4.644-1.271 1.094-3.171 1.639-5.696 1.639-2.527 0-4.436-.545-5.722-1.639-1.284-1.092-1.929-2.638-1.929-4.644v-17.945c0-2.003.635-3.549 1.907-4.642 1.27-1.092 3.169-1.637 5.695-1.637 2.525 0 4.435.545 5.721 1.637 1.285 1.093 1.93 2.639 1.93 4.642zm-3.14 17.945v-17.945c0-2.392-1.496-3.586-4.487-3.586-2.99 0-4.483 1.194-4.483 3.586v17.945c0 2.394 1.494 3.589 4.483 3.589 2.991 0 4.487-1.195 4.487-3.589zM488.799 866.229h-3.14V837.07h3.14l9.735 22.431V837.07h3.14v29.158h-3.14l-9.735-22.43v22.431z"/></g><g fill="#7C8D9B"><path d="M1448.245 611.084h-144.188V415.628h93.586l50.604 50.604-.002 144.852zm-140.984-3.204h137.78V467.559l-48.727-48.728h-89.057l.004 189.049z"/><path d="M1448.245 611.084h-144.188V415.628h92.922v51.268h51.27l-.004 144.188zm-140.984-3.204h137.78V470.099h-51.267v-51.268h-86.517l.004 189.049z"/><path d="M1356.134 588.576h-4.039v-4.937h4.039v4.937zM1364.498 559.416h8.972v24c0 1.915-.538 3.367-1.612 4.354-1.076.985-2.572 1.479-4.487 1.479-1.911 0-3.396-.494-4.439-1.479-1.045-.983-1.569-2.438-1.569-4.354V580.5h3.143v3.099c0 1.974.958 2.96 2.869 2.96 1.975 0 2.964-.986 2.964-2.96v-21.485h-5.833v-2.695l-.008-.003zM1393.564 582.97c0 4.188-2.528 6.279-7.582 6.279-5.056 0-7.578-2.094-7.578-6.279v-3.812h3.139v3.993c0 1.074.372 1.915 1.123 2.513.744.598 1.854.896 3.316.896 1.465 0 2.569-.301 3.317-.896s1.123-1.412 1.123-2.444c0-1.029-.11-1.853-.338-2.466-.226-.612-.682-1.264-1.37-1.952l-7.892-7.717c-.933-.926-1.564-1.833-1.909-2.716-.344-.879-.513-1.996-.513-3.342 0-2.005.618-3.551 1.855-4.644 1.242-1.092 3.116-1.637 5.632-1.637 4.813 0 7.226 2.091 7.226 6.277v3.812h-3.144v-3.989c0-1.079-.352-1.914-1.056-2.517-.704-.594-1.756-.896-3.163-.896-1.404 0-2.46.303-3.161.896-.704.603-1.054 1.421-1.054 2.469 0 1.05.104 1.868.314 2.472.207.595.67 1.228 1.391 1.885l8.029 7.716c.864.958 1.464 1.874 1.796 2.757.333.882.499 1.995.499 3.342z"/></g><g fill="#7C8D9B"><path d="M284.219 700.924H140.031V505.469h93.585l50.603 50.604v144.851zm-140.983-3.203h137.778V557.398l-48.725-48.727h-89.056V697.72l.003.001z"/><path d="M284.219 700.924H140.031V505.469h92.922v51.269h51.266v144.186zm-140.983-3.203h137.778V559.939h-51.266v-51.268h-86.515V697.72l.003.001z"/><path d="M185.575 678.416h-4.038v-4.934h4.038v4.934zM198.361 678.416h-3.141v-10.454l-7.4-18.706h3.318l5.651 15.029 5.651-15.029h3.32l-7.402 18.754v10.406h.003zM211.815 678.416h-3.14v-29.16h4.711L218.5 668.5l5.159-19.244h4.71v29.16h-3.141v-24.134l-5.248 19.647h-2.916l-5.25-19.647.001 24.134zM234.649 678.416v-29.16h3.141v26.469h8.209v2.69l-11.35.001z"/></g><g fill="#7C8D9B"><path d="M1025.198 859.143H881.01V663.688h93.585l50.604 50.604-.001 144.851zm-140.984-3.204h137.781V715.617l-48.729-48.729h-89.055l.003 189.051z"/><path d="M1025.198 859.143H881.01V663.688h92.922v51.269h51.27l-.004 144.186zm-140.984-3.204h137.781V718.157h-51.269V666.89H884.21l.004 189.049z"/><path d="M932.341 836.635h-4.037V831.7h4.037v4.935zM941.089 836.635h-3.141v-29.16h4.711l5.112 19.244 5.158-19.244h4.709v29.16h-3.14V812.5l-5.247 19.65h-2.916l-5.249-19.65.003 24.135zM971.143 836.635h-7.223v-29.16h7.223c2.332 0 4.104.56 5.315 1.661 1.211 1.104 1.815 2.647 1.815 4.622v16.6c0 2.003-.6 3.552-1.795 4.644-1.193 1.085-2.973 1.633-5.335 1.633zm3.992-6.281v-16.597c0-.957-.353-1.796-1.055-2.513s-1.684-1.076-2.938-1.076h-4.082v23.774h4.082c1.257 0 2.234-.354 2.938-1.058a3.432 3.432 0 0 0 1.055-2.53z"/></g><g fill="#7C8D9B"><path d="M1234.219 1186.924h-144.188V991.468h93.585l50.603 50.604v144.852zm-140.983-3.203h137.776v-140.322l-48.725-48.727h-89.058v189.049h.007z"/><path d="M1234.219 1186.924h-144.188V991.468h92.922v51.269h51.266v144.187zm-140.983-3.203h137.776V1045.94h-51.266v-51.268h-86.517v189.049h.007z"/><path d="M1135.575 1164.416h-4.038v-4.936h4.038v4.936zM1148.361 1164.416h-3.143v-10.454l-7.398-18.706h3.316l5.651 15.028 5.649-15.028h3.32l-7.402 18.753v10.407h.007zM1161.816 1164.416h-3.143v-29.16h4.711l5.113 19.244 5.159-19.244h4.71v29.16h-3.141v-24.136l-5.248 19.648h-2.916l-5.25-19.648v24.136h.005zM1184.65 1164.416v-29.16h3.14v26.469h8.209v2.691h-11.349z"/></g></svg>